<?xml version="1.0" encoding="utf-8"?>
<!-- Generator: Adobe Illustrator 19.2.0, SVG Export Plug-In . SVG Version: 6.00 Build 0)  -->
<svg version="1.1" id="Layer_1" xmlns="http://www.w3.org/2000/svg" xmlns:xlink="http://www.w3.org/1999/xlink" x="0px" y="0px"
	 viewBox="0 0 60 60" style="enable-background:new 0 0 60 60;" xml:space="preserve">
<style type="text/css">
	.st0{display:none;fill:#333749;}
	.st1{fill:none;stroke:#E6E7E8;stroke-miterlimit:10;}
	.st2{fill:#04948B;}
	.st3{fill:#660C51;}
	.st4{fill:#C3956C;}
	.st5{fill:#FFFFFF;}
	.st6{fill:#E6E7E8;}
	.st7{fill:#0066C5;}
	.st8{fill:none;stroke:#000000;stroke-width:0.1264;stroke-linejoin:round;stroke-miterlimit:10;}
	.st9{fill:none;stroke:#000000;stroke-width:0.1264;stroke-linecap:round;stroke-linejoin:round;stroke-miterlimit:10;}
	.st10{fill:none;stroke:#000000;stroke-width:0.1241;stroke-linecap:round;stroke-linejoin:round;stroke-miterlimit:10;}
	.st11{fill:none;stroke:#000000;stroke-width:0.1241;stroke-linejoin:round;stroke-miterlimit:10;}
	.st12{fill:none;stroke:#000000;stroke-width:0.6232;stroke-linecap:round;stroke-linejoin:round;stroke-miterlimit:10;}
	.st13{fill:none;stroke:#000000;stroke-width:0.4921;stroke-linejoin:round;stroke-miterlimit:10;}
	.st14{fill:none;stroke:#000000;stroke-width:0.623;stroke-linecap:round;stroke-linejoin:round;stroke-miterlimit:10;}
	.st15{fill:none;stroke:#000000;stroke-width:0.1252;stroke-linecap:round;stroke-linejoin:round;stroke-miterlimit:10;}
	.st16{fill:none;stroke:#000000;stroke-width:0.1252;stroke-linejoin:round;stroke-miterlimit:10;}
</style>
<rect class="st0" width="60.3" height="60.1"/>
<path class="st1" d="M25.6,40.9l-6.8,9"/>
<path class="st1" d="M31,23.1l5.6-11.9"/>
<line class="st1" x1="20.1" y1="36" x2="9.9" y2="36"/>
<line class="st1" x1="50.8" y1="36.1" x2="40.6" y2="36.1"/>
<path class="st1" d="M20.5,22.6L6.6,8.7"/>
<circle class="st2" cx="5.2" cy="7.2" r="4"/>
<circle class="st3" cx="38.2" cy="7.3" r="4.4"/>
<circle class="st4" cx="6.1" cy="36" r="4"/>
<g>
	<rect x="17.2" y="18.5" class="st5" width="25.8" height="23.3"/>
	<path class="st6" d="M43.2,17.5H16.8c-0.3,0-0.5,0.2-0.5,0.5v23.9c0,0.3,0.2,0.5,0.5,0.5h26.4c0.3,0,0.5-0.2,0.5-0.5V18.1
		C43.7,17.8,43.5,17.5,43.2,17.5z M42.8,41.4H17.2V18.6h25.5L42.8,41.4L42.8,41.4z"/>
</g>
<circle class="st7" cx="17" cy="52" r="4"/>
<circle class="st4" cx="54" cy="36" r="4"/>
<g>
	<path class="st8" d="M32.6,37.4h-0.2c-0.1-0.1-0.1-0.1-0.2-0.1c-0.2,0-0.3,0.1-0.3,0.3v0.1c-0.3,0-0.5-0.1-0.7-0.3c0,0,0,0.1,0,0.2
		c0,0.1,0.1,0.2,0.1,0.3c-0.1,0-0.1,0-0.2,0l0,0c0,0.2,0.1,0.3,0.3,0.3c0,0-0.1,0-0.2,0c0,0.1,0.2,0.2,0.3,0.2
		c-0.1,0.1-0.3,0.2-0.5,0.1c0.1,0.1,0.3,0.1,0.5,0.1c0.6,0,0.9-0.5,0.9-0.9l0,0C32.5,37.7,32.5,37.5,32.6,37.4z"/>
	<circle class="st9" cx="31.8" cy="38" r="1.5"/>
</g>
<g>
	<circle class="st10" cx="35.4" cy="38.1" r="1.4"/>
	<path class="st11" d="M35.8,37.8h-0.3v-0.1c0-0.1,0-0.1,0.1-0.1h0.2v-0.3h-0.3c-0.3,0-0.3,0.2-0.3,0.3v0.1H35V38h0.2
		c0,0.4,0,0.9,0,0.9h0.4c0,0,0-0.5,0-0.9h0.3L35.8,37.8z"/>
</g>
<line class="st12" x1="25.8" y1="31" x2="40.1" y2="31"/>
<line class="st12" x1="25.8" y1="28.7" x2="40.1" y2="28.7"/>
<line class="st12" x1="25.8" y1="33.3" x2="40.1" y2="33.3"/>
<rect x="19.5" y="28.7" class="st13" width="4.7" height="4.7"/>
<path class="st7" d="M19.3,26.8c0-0.5,0.1-1.9,1.6-2.3c-0.4-0.3-0.7-0.9-0.7-1.4c0-1,0.8-1.9,1.9-1.9c1,0,1.9,0.8,1.9,1.9
	c0,0.6-0.3,1.1-0.7,1.4c1.5,0.5,1.6,1.9,1.6,2.3v0.3h-5.7v-0.3H19.3z"/>
<path class="st4" d="M24.2,26.8c0-0.5,0.1-1.9,1.6-2.3c-0.4-0.3-0.7-0.9-0.7-1.4c0-1,0.8-1.9,1.9-1.9s2,0.8,2,1.9
	c0,0.6-0.3,1.1-0.7,1.4c1.5,0.5,1.6,1.9,1.6,2.3v0.3h-5.7V26.8z"/>
<line class="st14" x1="19.5" y1="35.3" x2="40.3" y2="35.3"/>
<g>
	<circle class="st15" cx="38.7" cy="38" r="1.4"/>
	<path class="st16" d="M39.1,38.1L39.1,38.1L39,38.6h-0.4c0,0,0-0.8,0-0.9H39v0.1c0,0,0.1-0.1,0.2-0.1c0.2,0,0.3,0.1,0.3,0.4v0.5
		h-0.4V38.1C39.2,38.1,39.2,38.1,39.1,38.1z"/>
	<rect x="38.2" y="37.7" class="st16" width="0.3" height="0.9"/>
	<circle class="st16" cx="38.3" cy="37.4" r="0.1"/>
</g>
</svg>
