<?xml version="1.0" encoding="utf-8"?>
<!-- Generator: Adobe Illustrator 19.2.0, SVG Export Plug-In . SVG Version: 6.00 Build 0)  -->
<svg version="1.1" id="Layer_1" xmlns="http://www.w3.org/2000/svg" xmlns:xlink="http://www.w3.org/1999/xlink" x="0px" y="0px"
	 viewBox="0 0 60 60" style="enable-background:new 0 0 60 60;" xml:space="preserve">
<style type="text/css">
	.st0{display:none;fill:#31374A;}
	.st1{fill:#660C51;}
	.st2{fill:#C3956C;}
	.st3{fill:#0066C5;}
	.st4{fill:#0066C5;stroke:#0066C5;stroke-width:1.3052;stroke-miterlimit:10;}
	.st5{fill:#660C51;stroke:#660C51;stroke-width:0.1836;stroke-miterlimit:10;}
</style>
<rect x="0.2" y="0.1" class="st0" width="60" height="60"/>
<g>
	<g>
		<path class="st1" d="M36,26.4c0,3.7-2.7,6.6-6.1,6.6c-1.1,0-2.1-0.3-3-0.9c-1.8-1.1-3.1-3.3-3.1-5.8c0-3.7,2.7-6.6,6.1-6.6
			C33.4,19.7,36,22.7,36,26.4z"/>
		<path class="st1" d="M37.5,36.2l-4.7-1.8v-2.2c1.4-1.1,2.4-3,2.4-5.2c0-0.1,0-0.1,0-0.2c-0.3,0-0.7,0.1-1.1,0.1
			c-1.2,0-2.4-0.3-3.4-1.6c-0.8,0.9-2.3,1.6-3.6,1.6c-0.6,0-1.6-0.3-2.3-0.6c0,0.2,0,0.5,0,0.7c0,2.3,1.1,4.3,2.7,5.4v2l-4.7,1.8
			c-1.3,0.5-2.2,1.7-2.2,3.1v1.9h19.2v-1.9C39.7,37.9,38.8,36.6,37.5,36.2z"/>
	</g>
	<g>
		<path class="st2" d="M51,26.4c0,3.7-2.7,6.6-6.1,6.6c-1.1,0-2.1-0.3-3-0.9c-1.8-1.1-3.1-3.3-3.1-5.8c0-3.7,2.7-6.6,6.1-6.6
			C48.2,19.8,51,22.7,51,26.4z"/>
		<path class="st2" d="M52.3,36.2l-4.7-1.8v-2.2c1.4-1.1,2.4-3,2.4-5.2c0-0.1,0-0.1,0-0.2C49.7,27,49.2,27,49,27
			c-1.2,0-2.4-0.3-3.4-1.6c-0.8,0.9-2.3,1.6-3.7,1.6c-0.6,0-1.6-0.3-2.3-0.6c0,0.2,0,0.5,0,0.7c0,2.3,1.1,4.3,2.7,5.4v2l-4.7,1.8
			c-1.3,0.5-2.2,1.7-2.2,3.1v1.9h19.2v-1.9C54.5,37.9,53.7,36.7,52.3,36.2z"/>
	</g>
	<g>
		<path class="st3" d="M21,25.8c0,3.7-2.7,6.6-6.1,6.6c-1.1,0-2.1-0.3-3-0.9c-1.8-1.1-3.1-3.3-3.1-5.8c0-3.7,2.7-6.6,6.1-6.6
			C18.2,19.2,21,22.2,21,25.8z"/>
		<path class="st4" d="M22.4,35.6l-4.7-1.8v-2.2c1.4-1.1,2.4-3,2.4-5.2c0-0.1,0-0.1,0-0.2c-0.3,0-0.7,0.1-1.1,0.1
			c-1.2,0-2.4-0.3-3.4-1.6c-0.8,0.9-2.3,1.6-3.6,1.6c-0.6,0-1.6-0.3-2.3-0.6c0,0.2,0,0.5,0,0.7c0,2.3,1.1,4.3,2.7,5.4v2l-4.7,1.8
			c-1.3,0.5-2.2,1.7-2.2,3.1v1.9h19.2v-1.9C24.5,37.3,23.6,36.1,22.4,35.6z"/>
	</g>
	<path class="st5" d="M31,31l0.3,0.3l0,0l0.1,0.1l0.8,0.8c0.2,0.3,0.6,0.6,1.1,0.7c1.2,0.2,2.3-1.1,2.7-2c0.5-1,0.5-1.8,0.5-3.2
		c-0.1-5.6-0.1-5.5-0.1-5.7c-0.7-2.3-3.3-5.4-6.7-5.4c-3.3,0.1-5.6,2.9-6.3,5.1c-0.3,0.8-0.2,2.5,0.1,5.9c0.1,2,0.3,3.2,1.2,4.1
		c0.3,0.3,1,1.1,2.1,1c0.9-0.1,1.6-0.8,1.9-1.9c-0.4-0.3-2-1.3-2.6-3.5c-0.1-0.4-0.9-2.9,0.2-4c0.4-0.4,0.7-0.2,1.8-0.9
		c1.1-0.7,1.2-1.2,1.7-1.2c0.7,0,0.8,1.1,1.9,1.4c0.6,0.2,0.7,0,1.2,0.1c1.1,0.3,1.7,1.9,1.8,2.6c0.3,1.8-0.9,3.9-3.2,5.4L31,31"/>
	<path class="st2" d="M50.8,24.8c0.5-0.9,0.1-2.8-1.5-3.3c1.1-1.7,0.6-4-0.5-5h-0.1c-0.9-0.7-1.8-0.7-3.8,0.4c-1.8-1-3-1-3.9-0.5
		l0,0c-1.1,1-1.6,3.2-0.5,5c-1.6,0.4-2,2.4-1.5,3.3"/>
</g>
</svg>
