<?xml version="1.0" encoding="utf-8"?>
<!-- Generator: Adobe Illustrator 19.2.0, SVG Export Plug-In . SVG Version: 6.00 Build 0)  -->
<svg version="1.1" id="Layer_1" xmlns="http://www.w3.org/2000/svg" xmlns:xlink="http://www.w3.org/1999/xlink" x="0px" y="0px"
	 viewBox="0 0 60 60" style="enable-background:new 0 0 60 60;" xml:space="preserve">
<style type="text/css">
	.st0{display:none;fill:#31374A;}
	.st1{fill:#FFFFFF;stroke:#000000;stroke-width:0.5;}
	.st2{fill:none;stroke:#000000;}
	.st3{fill:#FFFFFF;stroke:#000000;stroke-width:0.4607;stroke-miterlimit:10;}
	.st4{fill:#C3956C;}
	.st5{fill:#AFE6F6;}
	.st6{fill:none;stroke:#000000;stroke-width:0.8;stroke-linecap:round;stroke-linejoin:round;stroke-miterlimit:10;}
	.st7{fill:#04948B;stroke:#000000;stroke-width:0.6769;stroke-linecap:round;stroke-linejoin:round;stroke-miterlimit:10;}
	.st8{fill:#04948B;stroke:#04948B;stroke-width:0.8142;stroke-miterlimit:10;}
	.st9{fill:none;stroke:#04948B;stroke-width:0.8142;stroke-miterlimit:10;}
</style>
<rect class="st0" width="60" height="60"/>
<path class="st1" d="M23.1,24.5c0-0.8-0.6-1.5-1.5-1.5s-1.5,0.7-1.5,1.5s0.6,1.5,1.5,1.5S23.1,25.3,23.1,24.5z"/>
<path class="st1" d="M40.4,15.7c0.1,0.8-0.4,1.6-1.3,1.7c-0.9,0.1-1.6-0.5-1.7-1.3s0.4-1.6,1.3-1.7C39.5,14.3,40.3,14.9,40.4,15.7z"
	/>
<path class="st1" d="M25.4,16c0-0.8-0.6-1.5-1.5-1.5s-1.5,0.7-1.5,1.5c0,0.8,0.6,1.5,1.5,1.5C24.7,17.5,25.4,16.8,25.4,16z"/>
<path class="st2" d="M27.7,30.5c-0.5,0.7-1.4,0.8-2.1,0.3s-0.8-1.4-0.3-2.1s1.4-0.8,2.1-0.3C28.1,28.9,28.2,29.8,27.7,30.5z"/>
<path class="st1" d="M18.3,21.3c0.6-0.6,0.6-1.5,0-2.1s-1.5-0.6-2.1,0s-0.6,1.5,0,2.1C16.8,22,17.7,21.9,18.3,21.3z"/>
<path class="st2" d="M37,30.5c0.5,0.7,1.4,0.8,2.1,0.3c0.7-0.5,0.8-1.4,0.3-2.1s-1.4-0.8-2.1-0.3C36.6,28.9,36.5,29.8,37,30.5z"/>
<path class="st1" d="M32.9,16c0-0.8-0.6-1.5-1.5-1.5c-0.9,0-1.5,0.7-1.5,1.5c0,0.8,0.6,1.5,1.5,1.5C32.3,17.5,32.9,16.8,32.9,16z"/>
<g>
	<ellipse class="st3" cx="15.5" cy="11" rx="7" ry="6.8"/>
	<path class="st4" d="M12.1,14.1c0-0.6,0.2-2.2,1.9-2.8c-0.5-0.4-0.8-1-0.8-1.7c0-1.2,1-2.2,2.2-2.2s2.2,1,2.2,2.2
		c0,0.7-0.3,1.3-0.8,1.7c1.7,0.6,1.9,2.2,1.9,2.8v0.4H12L12.1,14.1L12.1,14.1z"/>
</g>
<g>
	<circle class="st5" cx="31.4" cy="39.7" r="15.1"/>
	<circle class="st6" cx="31.4" cy="39.7" r="15.1"/>
	<path class="st7" d="M41.9,30.2c0,0.6-0.3,1.2-0.6,1.9c-0.8,1.5-1.9,2.4-2.5,2.9c-2.5-0.6-5.1,1.3-4.4,1.3c0.6,0,1.3,2.5,1.3,2.5
		c0.6,0.6,1.9,0,1.9,0c1.6,1.6-2.5,4.4-2.5,5.1s1.6,1,0.6,1.9c-1,1-1.9,1.3-1.9,1.3c0,3.2-3.2,3.2-3.8,3.2c-0.6,0-1.9-2.5-1.9-3.2
		c0-0.6,0.6-1.3,0.6-1.9c0-0.6-1.3-1.9-1.3-1.9c0-2.5-1.9-1.9-3.8-1.9s-1.9-2.5-1.9-2.5s0-4.4,3.2-5.1s3.2,0.6,3.2,0.6
		c1.3,1.3,3.8,0,5.1,0c0,0,0.6-4.4-0.6-3.8c-0.7,0.4-1.4,0.4-1.9,0c-0.4-0.3-0.7-0.9-0.7-1.3c0-1.5,2.9-3.1,5.5-3.2
		C38.4,26,41.8,28.1,41.9,30.2z"/>
</g>
<g>
	<ellipse class="st3" cx="48.4" cy="11.1" rx="7" ry="6.8"/>
	<g>
		<polygon class="st8" points="50.5,11.2 49.1,9.1 49.8,9.1 48.4,7 46.9,9.1 47.7,9.1 46.2,11.2 47.3,11.2 45.7,13.4 51,13.4 
			49.4,11.2 		"/>
		<line class="st9" x1="48.4" y1="13.4" x2="48.4" y2="15.2"/>
	</g>
</g>
<path class="st1" d="M40.1,24.5c0-0.8,0.6-1.5,1.5-1.5s1.5,0.7,1.5,1.5S42.5,26,41.6,26C40.8,26,40.1,25.3,40.1,24.5z"/>
<path class="st1" d="M44.9,21.3c-0.6-0.6-0.6-1.5,0-2.1s1.5-0.6,2.1,0s0.6,1.5,0,2.1C46.5,22,45.5,21.9,44.9,21.3z"/>
</svg>
