<?xml version="1.0" encoding="utf-8"?>
<!-- Generator: Adobe Illustrator 19.2.0, SVG Export Plug-In . SVG Version: 6.00 Build 0)  -->
<svg version="1.1" id="Layer_1" xmlns="http://www.w3.org/2000/svg" xmlns:xlink="http://www.w3.org/1999/xlink" x="0px" y="0px"
	 viewBox="0 0 60 60" style="enable-background:new 0 0 60 60;" xml:space="preserve">
<style type="text/css">
	.st0{display:none;fill:#31374A;}
	.st1{fill:#0066C5;}
	.st2{fill:#04948B;}
	.st3{fill:none;stroke:#04948B;stroke-width:0.415;stroke-linecap:round;stroke-linejoin:round;stroke-miterlimit:10;}
	.st4{fill:#04948B;stroke:#04948B;stroke-miterlimit:10;}
</style>
<rect x="-0.4" y="0.1" class="st0" width="60" height="60"/>
<g>
	<path class="st1" d="M42.2,39.2l-7.7-2.9v-3.5c2.3-1.8,3.9-4.9,3.9-8.5c0-0.1,0-0.2,0-0.2c-0.6,0.1-1.2,0.1-1.8,0.1
		c-1.9,0-3.9-0.5-5.5-2.6c-1.3,1.5-3.7,2.6-5.9,2.6c-1,0-2.6-0.5-3.7-1c0,0.4-0.1,0.8-0.1,1.2c0,3.8,1.8,7.1,4.4,8.8v3.2l-7.7,2.9
		c-2.1,0.8-3.6,2.8-3.6,5.1v3.1h31.3v-3.1C45.9,42,44.5,39.9,42.2,39.2z"/>
	<circle class="st2" cx="16.6" cy="24.9" r="1.5"/>
	<path class="st2" d="M21.9,20.1v3.8c0,0,2.4,2.4,8.1,2.4s8.1-2.4,8.1-2.4v-3.8"/>
	<path class="st2" d="M21.5,20.7v3.8c0,0,2.5,2.4,8.5,2.4s8.5-2.4,8.5-2.4v-3.8"/>
	<g>
		<line class="st3" x1="16.6" y1="18.4" x2="16.6" y2="23.3"/>
		<polygon class="st2" points="12.6,17.7 30.2,12.5 47.4,17.8 29.7,23.6 		"/>
		<path class="st4" d="M21.9,24.5v-3.8c0,0,2.4-2.4,8.1-2.4s8.1,2.4,8.1,2.4v3.8"/>
	</g>
</g>
</svg>
