<?xml version="1.0" encoding="utf-8"?>
<!-- Generator: Adobe Illustrator 19.2.0, SVG Export Plug-In . SVG Version: 6.00 Build 0)  -->
<svg version="1.1" id="Layer_1" xmlns="http://www.w3.org/2000/svg" xmlns:xlink="http://www.w3.org/1999/xlink" x="0px" y="0px"
	 viewBox="0 0 60 60" style="enable-background:new 0 0 60 60;" xml:space="preserve">
<style type="text/css">
	.st0{display:none;fill:#31374A;}
	.st1{fill:#C3956C;stroke:#FFFBE0;stroke-width:0.4154;stroke-miterlimit:10;}
	.st2{fill:#C3956C;stroke:#FFFBE0;stroke-width:0.5;stroke-miterlimit:10;}
	.st3{fill:#FFFBE0;stroke:#C3956C;stroke-width:0.4154;stroke-miterlimit:10;}
	.st4{fill:#FFFBE0;stroke:#C3956C;stroke-width:0.5;stroke-miterlimit:10;}
</style>
<rect class="st0" width="60" height="60"/>
<rect x="35.1" y="26.4" class="st1" width="9.9" height="17.1"/>
<g>
	<path class="st2" d="M46.4,19.5V26c0,2.8-2.2,5-5,5h-3.3c-1.6,0-3.1-0.8-4.1-2.1c0-0.1-0.1-0.1-0.1-0.2C32.2,26,30,21.5,30,21.5
		c-0.3-0.5-0.3-1.1,0.1-1.5s1.2-0.5,1.6-0.1l2.7,3.1V13c0-0.8,0.7-1.5,1.5-1.5s1.5,0.7,1.5,1.5v6"/>
	<path class="st2" d="M37.4,21.3v-9.5c0-1.3,0.7-2.4,1.5-2.4s1.5,1.1,1.5,2.4v9.5"/>
	<path class="st2" d="M40.4,22v-8.4c0-1.2,0.7-2.1,1.5-2.1s1.5,0.9,1.5,2.1V22"/>
	<path class="st2" d="M43.4,20.5V16c0-0.8,0.7-1.5,1.5-1.5s1.5,0.7,1.5,1.5v6"/>
</g>
<rect x="14.6" y="35.5" class="st3" width="9.9" height="17.1"/>
<g>
	<path class="st4" d="M13.6,27.9v6.5c0,2.8,2.2,5,5,5h3.3c1.7,0,3.3-0.9,4.2-2.3c1.7-2.7,3.9-7.2,3.9-7.2c0.3-0.5,0.3-1.1-0.1-1.5
		s-1.2-0.5-1.6-0.1l-2.7,3.1v-10c0-0.8-0.7-1.5-1.5-1.5s-1.5,0.7-1.5,1.5v6"/>
	<path class="st4" d="M22.6,28.5V20c0-1.2-0.7-2.1-1.5-2.1s-1.5,0.9-1.5,2.1v8.5"/>
	<path class="st4" d="M19.6,29.8v-7.9c0-1.1-0.7-2-1.5-2s-1.5,0.9-1.5,2v7.9"/>
	<path class="st4" d="M16.6,28.9v-4.5c0-0.8-0.7-1.5-1.5-1.5s-1.5,0.7-1.5,1.5v6"/>
</g>
</svg>
