<?xml version="1.0" encoding="utf-8"?>
<!-- Generator: Adobe Illustrator 19.2.0, SVG Export Plug-In . SVG Version: 6.00 Build 0)  -->
<svg version="1.1" id="Layer_1" xmlns="http://www.w3.org/2000/svg" xmlns:xlink="http://www.w3.org/1999/xlink" x="0px" y="0px"
	 viewBox="0 0 60 60" style="enable-background:new 0 0 60 60;" xml:space="preserve">
<style type="text/css">
	.st0{display:none;fill:#31374A;}
	.st1{fill:#FFFFFF;}
	.st2{fill:#E6E7E8;}
	.st3{fill:none;stroke:#000000;stroke-linecap:round;stroke-linejoin:round;stroke-miterlimit:10;}
	.st4{fill:none;stroke:#000000;stroke-width:0.7254;stroke-miterlimit:10;}
	.st5{fill:#660C51;}
	.st6{fill:#E6E7E8;stroke:#0066C5;stroke-width:0.4191;stroke-linecap:round;stroke-linejoin:round;stroke-miterlimit:10;}
	.st7{fill:none;stroke:#0066C5;stroke-width:0.2188;stroke-linejoin:round;stroke-miterlimit:10;}
	.st8{fill:none;stroke:#0066C5;stroke-width:0.2188;stroke-linecap:round;stroke-linejoin:round;stroke-miterlimit:10;}
	.st9{fill:#E6E7E8;stroke:#C3956C;stroke-width:0.4191;stroke-linecap:round;stroke-linejoin:round;stroke-miterlimit:10;}
	.st10{fill:none;stroke:#C3956C;stroke-width:0.219;stroke-linecap:round;stroke-linejoin:round;stroke-miterlimit:10;}
	.st11{fill:none;stroke:#C3956C;stroke-width:0.1198;stroke-linecap:round;stroke-linejoin:round;stroke-miterlimit:10;}
	.st12{fill:#E6E7E8;stroke:#660C51;stroke-width:0.4191;stroke-linecap:round;stroke-linejoin:round;stroke-miterlimit:10;}
	.st13{fill:none;stroke:#660C51;stroke-width:8.446604e-02;stroke-linejoin:round;stroke-miterlimit:10;}
	.st14{fill:none;stroke:#660C51;stroke-width:8.703816e-02;stroke-linejoin:round;stroke-miterlimit:10;}
	.st15{fill:none;stroke:#660C51;stroke-width:0.219;stroke-linejoin:round;}
	.st16{fill:#E6E7E8;stroke:#04948B;stroke-width:0.4191;stroke-linecap:round;stroke-linejoin:round;stroke-miterlimit:10;}
	.st17{fill:none;stroke:#04948B;stroke-width:0.2028;stroke-linecap:round;stroke-linejoin:round;stroke-miterlimit:10;}
</style>
<rect class="st0" width="60" height="60"/>
<g>
	<rect x="7.3" y="12.2" class="st1" width="44.4" height="34.5"/>
	<path class="st2" d="M51.9,10.7H6.5c-0.4,0-0.8,0.4-0.8,0.8v35.3c0,0.4,0.4,0.8,0.8,0.8H52c0.4,0,0.8-0.4,0.8-0.8V11.5
		C52.7,11.1,52.4,10.7,51.9,10.7z M51.2,46.1H7.3V12.3h43.9V46.1z"/>
</g>
<line class="st3" x1="19.5" y1="18.2" x2="49" y2="18.2"/>
<g>
	<rect x="9.7" y="18.1" class="st1" width="6.9" height="7.6"/>
	<path class="st4" d="M9.6,18.4V26c0,0.1,0.2,0.3,0.5,0.3h6.2c0.3,0,0.5-0.1,0.5-0.3v-7.6c0-0.1-0.2-0.3-0.5-0.3h-6.2
		C9.8,18.1,9.6,18.2,9.6,18.4z"/>
	<path class="st5" d="M10.9,24.1c0-0.4,0.1-1.5,1.3-1.8c-0.3-0.3-0.5-0.7-0.5-1.1c0-0.8,0.7-1.5,1.5-1.5s1.5,0.7,1.5,1.5
		c0,0.5-0.2,0.9-0.5,1.1c1.2,0.4,1.3,1.5,1.3,1.8v0.2H11v-0.2H10.9z"/>
</g>
<line class="st3" x1="19.5" y1="22.2" x2="49" y2="22.2"/>
<line class="st3" x1="19.5" y1="26.3" x2="49" y2="26.3"/>
<g>
	<circle class="st6" cx="44.7" cy="36.9" r="3.8"/>
	<g>
		<line class="st7" x1="42.6" y1="37.8" x2="42.6" y2="36"/>
		<line class="st8" x1="42.4" y1="37.8" x2="43.5" y2="37.8"/>
		<line class="st8" x1="42.2" y1="38.7" x2="47.2" y2="38.7"/>
		<line class="st8" x1="42.2" y1="38.2" x2="47.2" y2="38.2"/>
		<line class="st8" x1="42.4" y1="36" x2="43.5" y2="36"/>
		<line class="st8" x1="44.1" y1="37.8" x2="45.2" y2="37.8"/>
		<line class="st8" x1="44.1" y1="36" x2="45.2" y2="36"/>
		<line class="st7" x1="43.3" y1="37.8" x2="43.3" y2="36"/>
		<line class="st7" x1="44.3" y1="37.8" x2="44.3" y2="36"/>
		<line class="st7" x1="45" y1="37.8" x2="45" y2="36"/>
		<line class="st8" x1="45.9" y1="37.8" x2="47" y2="37.8"/>
		<line class="st8" x1="45.9" y1="36" x2="47" y2="36"/>
		<line class="st7" x1="46.1" y1="37.8" x2="46.1" y2="36"/>
		<line class="st7" x1="46.8" y1="37.8" x2="46.8" y2="36"/>
		<polygon class="st7" points="42.2,35.6 47.2,35.6 44.7,33.6 		"/>
	</g>
</g>
<g>
	<circle class="st9" cx="23.1" cy="36.9" r="3.8"/>
	<g>
		<polygon class="st10" points="23.5,35.6 22.6,35.6 22.5,34.9 23.7,34.9 		"/>
		<path class="st10" d="M24,36.9c0,0.5-0.7,1.7-0.9,2H23c0,0-0.9-1.5-0.9-2s0.4-1,1-1S24,36.4,24,36.9z"/>
		<circle class="st10" cx="23.1" cy="37.1" r="0.3"/>
		<line class="st10" x1="23.1" y1="37.4" x2="23.1" y2="38.9"/>
		<line class="st10" x1="22.8" y1="35.6" x2="22.8" y2="36"/>
		<line class="st10" x1="23.3" y1="35.6" x2="23.3" y2="36"/>
	</g>
	<line class="st11" x1="23.3" y1="38.9" x2="24.7" y2="38.9"/>
</g>
<g>
	<circle class="st12" cx="33.8" cy="36.9" r="3.8"/>
	<g>
		<g>
			<g>
				<polygon class="st13" points="34.9,37.5 35,37.9 35.3,37.9 35.1,38.1 35.1,38.4 34.9,38.2 34.6,38.4 34.7,38.1 34.4,37.9 
					34.7,37.9 				"/>
				<circle class="st13" cx="34.9" cy="38" r="0.7"/>
			</g>
			<polyline class="st14" points="35.3,38.7 35.3,39.4 34.9,38.9 34.4,39.4 34.4,38.7 			"/>
		</g>
		<rect x="31.7" y="34.4" class="st15" width="4" height="5.3"/>
	</g>
</g>
<g>
	<circle class="st16" cx="13.4" cy="36.9" r="3.8"/>
	<g>
		<path class="st17" d="M13.1,39.1h-2.2v-0.2c0-0.1,0.1-0.2,0.2-0.2h1.7c0.1,0,0.2,0.1,0.2,0.2v0.2H13.1z"/>
		<path class="st17" d="M12.9,38.7h-1.7v-0.2c0-0.1,0.1-0.2,0.2-0.2h1.3c0.1,0,0.2,0.1,0.2,0.2V38.7z"/>
		
			<rect x="12.5" y="35.2" transform="matrix(0.7071 -0.7071 0.7071 0.7071 -21.3468 19.9005)" class="st17" width="1.7" height="1.1"/>
		<path class="st17" d="M12.3,36l-0.1-0.1c-0.2-0.2-0.5,0.1-0.3,0.3l1,1c0.2,0.2,0.5-0.1,0.3-0.3l-0.1-0.1"/>
		<path class="st17" d="M14.3,35.5l0.1,0.1c0.2,0.2,0.5-0.1,0.3-0.3l-1-1c-0.2-0.2-0.5,0.1-0.3,0.3l0.1,0.1"/>
		<line class="st17" x1="13.7" y1="36.1" x2="15.9" y2="38.3"/>
	</g>
</g>
</svg>
